<svg width="1200" height="630" viewBox="0 0 1200 630" fill="none" xmlns="http://www.w3.org/2000/svg">
  <rect width="1200" height="630" fill="#08090B"/>
  <path d="M0 0H1200V630H0V0Z" fill="url(#bg)"/>
  <g opacity="0.42">
    <path d="M90 118H1110" stroke="white" stroke-opacity="0.06"/>
    <path d="M90 236H1110" stroke="white" stroke-opacity="0.06"/>
    <path d="M90 354H1110" stroke="white" stroke-opacity="0.06"/>
    <path d="M90 472H1110" stroke="white" stroke-opacity="0.06"/>
  </g>
  <rect x="84" y="82" width="1032" height="466" rx="36" fill="white" fill-opacity="0.045" stroke="white" stroke-opacity="0.1"/>
  <rect x="124" y="128" width="92" height="92" rx="24" fill="#EDF0F3"/>
  <path d="M145 190L163.2 148.8C166 142.4 175.3 142.5 178 149L196.7 190H184.5L180.7 181H160.8L157 190H145Z" fill="#08090B"/>
  <path d="M164.2 172.1H177.2L170.7 156.4L164.2 172.1Z" fill="#EDF0F3"/>
  <text x="124" y="301" fill="#EDF0F3" font-family="Inter, ui-sans-serif, system-ui, sans-serif" font-size="76" font-weight="700">Aurora Finance</text>
  <text x="128" y="360" fill="#B6BDC6" font-family="Inter, ui-sans-serif, system-ui, sans-serif" font-size="28">Personal expense tracking for modern money habits.</text>
  <rect x="128" y="421" width="220" height="52" rx="14" fill="#6EE7B7"/>
  <text x="156" y="456" fill="#08090B" font-family="Inter, ui-sans-serif, system-ui, sans-serif" font-size="20" font-weight="700">Budgets</text>
  <rect x="368" y="421" width="220" height="52" rx="14" fill="white" fill-opacity="0.08"/>
  <text x="396" y="456" fill="#EDF0F3" font-family="Inter, ui-sans-serif, system-ui, sans-serif" font-size="20" font-weight="700">Analytics</text>
  <rect x="608" y="421" width="220" height="52" rx="14" fill="white" fill-opacity="0.08"/>
  <text x="636" y="456" fill="#EDF0F3" font-family="Inter, ui-sans-serif, system-ui, sans-serif" font-size="20" font-weight="700">CSV Export</text>
  <defs>
    <linearGradient id="bg" x1="0" y1="0" x2="1200" y2="630" gradientUnits="userSpaceOnUse">
      <stop stop-color="#121417"/>
      <stop offset="0.52" stop-color="#08090B"/>
      <stop offset="1" stop-color="#111827"/>
    </linearGradient>
  </defs>
</svg>
